<svg xmlns="http://www.w3.org/2000/svg" width="581.2px" height="432.0px" viewBox="0.0 0.0 581.2 432.0">
<g>
<line stroke="#000000" x1="48.0" y1="0.0" x2="0.0" y2="22.5"/>
<line stroke="#000000" x1="0.0" y1="22.4" x2="0.0" y2="167.6"/>
<line stroke="#000000" x1="0.0" y1="167.6" x2="48.0" y2="190.0"/>
<line stroke="#000000" x1="48.0" y1="190.0" x2="48.0" y2="194.0"/>
<line stroke="#000000" x1="48.0" y1="194.0" x2="22.5" y2="194.0"/>
<line stroke="#000000" x1="22.5" y1="194.0" x2="0.0" y2="242.0"/>
<line stroke="#000000" x1="0.0" y1="242.0" x2="0.0" y2="302.0"/>
<line stroke="#000000" x1="0.0" y1="302.0" x2="22.4" y2="350.0"/>
<line stroke="#000000" x1="22.4" y1="350.0" x2="48.0" y2="350.0"/>
<line stroke="#000000" x1="48.0" y1="350.0" x2="48.0" y2="354.0"/>
<line stroke="#000000" x1="48.0" y1="354.0" x2="0.0" y2="376.5"/>
<line stroke="#000000" x1="0.0" y1="376.5" x2="0.0" y2="432.0"/>
<line stroke="#000000" x1="0.0" y1="432.0" x2="156.0" y2="432.0"/>
<line stroke="#000000" x1="156.0" y1="432.0" x2="156.0" y2="376.5"/>
<line stroke="#000000" x1="156.0" y1="376.5" x2="108.0" y2="354.0"/>
<line stroke="#000000" x1="108.0" y1="354.0" x2="108.0" y2="350.0"/>
<line stroke="#000000" x1="108.0" y1="350.0" x2="185.5" y2="350.0"/>
<line stroke="#000000" x1="185.5" y1="350.0" x2="208.0" y2="302.0"/>
<line stroke="#000000" x1="208.0" y1="302.0" x2="212.0" y2="302.0"/>
<line stroke="#000000" x1="212.0" y1="302.0" x2="234.0" y2="350.0"/>
<line stroke="#000000" x1="234.0" y1="350.0" x2="318.7" y2="350.0"/>
<line stroke="#000000" x1="318.7" y1="350.0" x2="340.7" y2="302.0"/>
<line stroke="#000000" x1="340.7" y1="302.0" x2="344.7" y2="302.0"/>
<line stroke="#000000" x1="344.7" y1="302.0" x2="370.4" y2="314.0"/>
<line stroke="#000000" x1="370.4" y1="314.0" x2="387.7" y2="350.0"/>
<line stroke="#000000" x1="387.7" y1="350.0" x2="480.7" y2="350.0"/>
<line stroke="#000000" x1="460.7" y1="350.0" x2="521.7" y2="346.5"/>
<line stroke="#000000" x1="521.7" y1="346.5" x2="559.7" y2="346.5"/>
<line stroke="#000000" x1="559.7" y1="346.5" x2="581.2" y2="302.0"/>
<line stroke="#000000" x1="581.2" y1="302.0" x2="580.7" y2="242.0"/>
<line stroke="#000000" x1="580.7" y1="242.0" x2="560.2" y2="197.5"/>
<line stroke="#000000" x1="560.2" y1="197.5" x2="521.7" y2="197.0"/>
<line stroke="#000000" x1="521.7" y1="197.0" x2="480.7" y2="194.0"/>
<line stroke="#000000" x1="480.7" y1="194.0" x2="387.7" y2="194.0"/>
<line stroke="#000000" x1="387.7" y1="194.0" x2="370.2" y2="230.0"/>
<line stroke="#000000" x1="370.2" y1="230.0" x2="344.7" y2="242.0"/>
<line stroke="#000000" x1="344.7" y1="242.0" x2="341.0" y2="242.0"/>
<line stroke="#000000" x1="341.0" y1="242.0" x2="318.7" y2="194.0"/>
<line stroke="#000000" x1="318.7" y1="194.0" x2="234.5" y2="194.0"/>
<line stroke="#000000" x1="234.5" y1="194.0" x2="212.0" y2="242.0"/>
<line stroke="#000000" x1="212.0" y1="242.0" x2="208.0" y2="242.0"/>
<line stroke="#000000" x1="208.0" y1="242.0" x2="186.0" y2="194.0"/>
<line stroke="#000000" x1="186.0" y1="194.0" x2="108.0" y2="194.0"/>
<line stroke="#000000" x1="108.0" y1="194.0" x2="108.0" y2="190.0"/>
<line stroke="#000000" x1="108.0" y1="190.0" x2="156.0" y2="167.7"/>
<line stroke="#000000" x1="156.0" y1="167.7" x2="156.0" y2="22.5"/>
<line stroke="#000000" x1="156.0" y1="22.5" x2="108.0" y2="0.0"/>
<line stroke="#000000" x1="108.0" y1="0.0" x2="48.0" y2="0.0"/>
</g>
</svg>
