<svg xmlns="http://www.w3.org/2000/svg" width="407.4px" height="558.0px" viewBox="0.0 0.0 407.4 558.0">
<g>
<line stroke="#000000" x1="0.0" y1="0.0" x2="0.0" y2="136.0"/>
<line stroke="#000000" x1="0.0" y1="136.0" x2="55.7" y2="136.0"/>
<line stroke="#000000" x1="55.7" y1="136.0" x2="72.2" y2="100.7"/>
<line stroke="#000000" x1="72.2" y1="100.0" x2="82.0" y2="100.7"/>
<line stroke="#000000" x1="82.0" y1="100.7" x2="82.0" y2="165.6"/>
<line stroke="#000000" x1="82.0" y1="165.6" x2="117.4" y2="182.0"/>
<line stroke="#000000" x1="117.4" y1="182.0" x2="117.4" y2="197.7"/>
<line stroke="#000000" x1="117.4" y1="197.7" x2="82.0" y2="214.0"/>
<line stroke="#000000" x1="82.0" y1="214.0" x2="82.0" y2="295.6"/>
<line stroke="#000000" x1="82.0" y1="295.6" x2="117.4" y2="312.0"/>
<line stroke="#000000" x1="117.4" y1="312.0" x2="118.4" y2="337.8"/>
<line stroke="#000000" x1="118.4" y1="337.8" x2="101.0" y2="355.3"/>
<line stroke="#000000" x1="101.0" y1="355.3" x2="82.5" y2="364.0"/>
<line stroke="#000000" x1="82.5" y1="364.0" x2="82.0" y2="458.0"/>
<line stroke="#000000" x1="82.0" y1="458.0" x2="85.6" y2="498.5"/>
<line stroke="#000000" x1="85.6" y1="498.5" x2="85.6" y2="537.3"/>
<line stroke="#000000" x1="85.6" y1="537.3" x2="130.0" y2="558.0"/>
<line stroke="#000000" x1="130.0" y1="558.0" x2="170.0" y2="558.0"/>
<line stroke="#000000" x1="170.0" y1="558.0" x2="214.5" y2="537.3"/>
<line stroke="#000000" x1="214.5" y1="537.3" x2="214.5" y2="498.5"/>
<line stroke="#000000" x1="214.5" y1="498.5" x2="218.3" y2="458.0"/>
<line stroke="#000000" x1="218.3" y1="458.0" x2="218.3" y2="365.0"/>
<line stroke="#000000" x1="218.3" y1="365.0" x2="199.0" y2="355.5"/>
<line stroke="#000000" x1="199.0" y1="355.5" x2="182.0" y2="337.5"/>
<line stroke="#000000" x1="182.0" y1="337.5" x2="182.0" y2="312.5"/>
<line stroke="#000000" x1="182.0" y1="312.5" x2="218.0" y2="295.6"/>
<line stroke="#000000" x1="218.0" y1="295.6" x2="218.0" y2="214.4"/>
<line stroke="#000000" x1="218.0" y1="214.4" x2="182.6" y2="197.5"/>
<line stroke="#000000" x1="182.6" y1="197.5" x2="182.6" y2="182.0"/>
<line stroke="#000000" x1="182.6" y1="182.0" x2="218.0" y2="165.6"/>
<line stroke="#000000" x1="218.0" y1="165.6" x2="218.0" y2="100.7"/>
<line stroke="#000000" x1="218.0" y1="100.7" x2="227.8" y2="100.7"/>
<line stroke="#000000" x1="227.8" y1="100.7" x2="244.5" y2="136.0"/>
<line stroke="#000000" x1="244.5" y1="136.0" x2="389.8" y2="136.2"/>
<line stroke="#000000" x1="389.8" y1="136.2" x2="407.4" y2="98.0"/>
<line stroke="#000000" x1="407.4" y1="98.0" x2="407.4" y2="38.0"/>
<line stroke="#000000" x1="407.4" y1="38.0" x2="389.8" y2="0.0"/>
<line stroke="#000000" x1="389.8" y1="0.0" x2="244.4" y2="0.0"/>
<line stroke="#000000" x1="244.4" y1="0.0" x2="228.0" y2="35.3"/>
<line stroke="#000000" x1="228.0" y1="35.3" x2="218.0" y2="35.3"/>
<line stroke="#000000" x1="218.0" y1="35.3" x2="218.3" y2="22.2"/>
<line stroke="#000000" x1="218.3" y1="22.2" x2="180.0" y2="4.6"/>
<line stroke="#000000" x1="180.0" y1="4.6" x2="120.0" y2="4.6"/>
<line stroke="#000000" x1="120.0" y1="4.6" x2="82.0" y2="22.2"/>
<line stroke="#000000" x1="82.0" y1="22.2" x2="82.0" y2="35.3"/>
<line stroke="#000000" x1="82.0" y1="35.3" x2="72.4" y2="35.3"/>
<line stroke="#000000" x1="72.4" y1="35.3" x2="55.8" y2="0.0"/>
<line stroke="#000000" x1="55.8" y1="0.0" x2="0.0" y2="0.0"/>
</g>
</svg>
